<svg width="40" height="40" viewBox="0 0 40 40" fill="none" xmlns="http://www.w3.org/2000/svg">
<g filter="url(#filter0_d_1260_36136)">
<g filter="url(#filter1_b_1260_36136)">
<circle cx="20" cy="16" r="16" fill="black" fill-opacity="0.3"/>
<circle cx="20" cy="16" r="15.25" stroke="white" stroke-width="1.5"/>
</g>
<path d="M25.8933 11.0733C25.5528 10.7327 25.1485 10.4624 24.7036 10.2781C24.2586 10.0937 23.7816 9.99878 23.3 9.99878C22.8183 9.99878 22.3414 10.0937 21.8964 10.2781C21.4514 10.4624 21.0472 10.7327 20.7066 11.0733L20 11.78L19.2933 11.0733C18.6055 10.3855 17.6727 9.99914 16.7 9.99914C15.7273 9.99914 14.7944 10.3855 14.1066 11.0733C13.4189 11.7611 13.0325 12.694 13.0325 13.6667C13.0325 14.6394 13.4189 15.5722 14.1066 16.26L14.8133 16.9667L20 22.1533L25.1866 16.9667L25.8933 16.26C26.234 15.9195 26.5042 15.5152 26.6886 15.0702C26.873 14.6253 26.9679 14.1483 26.9679 13.6667C26.9679 13.185 26.873 12.7081 26.6886 12.2631C26.5042 11.8181 26.234 11.4138 25.8933 11.0733Z" fill="#FD525C" stroke="#FD525C" stroke-width="1.5" stroke-linecap="round" stroke-linejoin="round"/>
</g>
<defs>
<filter id="filter0_d_1260_36136" x="0" y="0" width="40" height="40" filterUnits="userSpaceOnUse" color-interpolation-filters="sRGB">
<feFlood flood-opacity="0" result="BackgroundImageFix"/>
<feColorMatrix in="SourceAlpha" type="matrix" values="0 0 0 0 0 0 0 0 0 0 0 0 0 0 0 0 0 0 127 0" result="hardAlpha"/>
<feOffset dy="4"/>
<feGaussianBlur stdDeviation="2"/>
<feComposite in2="hardAlpha" operator="out"/>
<feColorMatrix type="matrix" values="0 0 0 0 0 0 0 0 0 0 0 0 0 0 0 0 0 0 0.25 0"/>
<feBlend mode="normal" in2="BackgroundImageFix" result="effect1_dropShadow_1260_36136"/>
<feBlend mode="normal" in="SourceGraphic" in2="effect1_dropShadow_1260_36136" result="shape"/>
</filter>
<filter id="filter1_b_1260_36136" x="-3" y="-7" width="46" height="46" filterUnits="userSpaceOnUse" color-interpolation-filters="sRGB">
<feFlood flood-opacity="0" result="BackgroundImageFix"/>
<feGaussianBlur in="BackgroundImageFix" stdDeviation="3.5"/>
<feComposite in2="SourceAlpha" operator="in" result="effect1_backgroundBlur_1260_36136"/>
<feBlend mode="normal" in="SourceGraphic" in2="effect1_backgroundBlur_1260_36136" result="shape"/>
</filter>
</defs>
</svg>
