<svg width="142" height="123" viewBox="0 0 142 123" fill="none" xmlns="http://www.w3.org/2000/svg">
<path fill-rule="evenodd" clip-rule="evenodd" d="M68.8144 17.4914L33.9434 0.221069L34.998 38.8209L67.9229 55.1272L68.8144 17.4914ZM107.528 39.2914L107.085 0.380371L73.1714 18.8439L73.5899 55.5833L107.528 39.2914ZM107.51 80.9114L141.107 61.6944L107.493 44.015L73.8936 61.664L107.51 80.9114ZM67.9176 61.6944L34.3209 80.9114L0.704102 61.664L34.3035 44.015L67.9176 61.6944ZM108.034 122.579L73.1633 105.308L74.0549 67.6724L106.98 83.979L108.034 122.579ZM34.7043 84.018L35.1476 122.929L69.0616 104.465L68.6431 67.7261L34.7043 84.018Z" fill="#73CEC0"/>
</svg>
